{"asset":{"version":"2.0","generator":"THREE.GLTFExporter"},"scenes":[{"nodes":[0],"name":"AuxScene"}],"scene":0,"nodes":[{}],"bufferViews":[{"buffer":0,"byteOffset":0,"byteLength":11544,"target":34962,"byteStride":12},{"buffer":0,"byteOffset":11544,"byteLength":11544,"target":34962,"byteStride":12},{"buffer":0,"byteOffset":23088,"byteLength":7696,"target":34962,"byteStride":8}],"buffers":[{"byteLength":30784,"uri":"data:application/octet-stream;base64,"}],"accessors":[{"bufferView":0,"componentType":5126,"count":962,"max":[1,0.25,1],"min":[-1,-4.3711398944878965e-8,-1],"type":"VEC3"},{"bufferView":1,"componentType":5126,"count":962,"max":[0.9951848387718201,1,0.9951848387718201],"min":[-0.9951848387718201,-1,-0.9951850175857544],"type":"VEC3"},{"bufferView":2,"componentType":5126,"count":962,"max":[0.9998540282249451,0.916267991065979],"min":[0.00014624500181525946,0.00014624500181525946],"type":"VEC2"}]}